# xmcd
#
# Track frame offsets: 
#        150
#        18620
#        37838
#        54398
#        73490
#        92283
#        111145
#        129815
#        149485
#        168555
#        187505
#        206350
#        224235
#        243295
#        262168
#        281454
#        299811
#        313971
#
# Disc length: 4441 seconds
#
# Revision: 0
# Processed by: cddbd v1.5.2PL0 Copyright (c) Steve Scherf et al.
# Submitted via: ExactAudioCopy v0.99pb5
#
DISCID=18115712
DTITLE=Belinda Carlisle - The Best Of Belinda Volume 1 and Into Deep
DYEAR=1990
DGENRE=Country
TTITLE0=Heaven is a place on earth
TTITLE1=(we want) The same thing
TTITLE2=Circle in the sand
TTITLE3=Leave a light on
TTITLE4=Little black book
TTITLE5=Summer rain
TTITLE6=Vision of you
TTITLE7=Live your life be free
TTITLE8=I get weak
TTITLE9=La luna
TTITLE10=I plead insanity
TTITLE11=World without you
TTITLE12=Do you feel like I feel?
TTITLE13=Half the world
TTITLE14=Runaway horses
TTITLE15=Into Deep
TTITLE16=I see no ships
TTITLE17=Shivering inside
EXTD=
EXTT0=
EXTT1=
EXTT2=
EXTT3=
EXTT4=
EXTT5=
EXTT6=
EXTT7=
EXTT8=
EXTT9=
EXTT10=
EXTT11=
EXTT12=
EXTT13=
EXTT14=
EXTT15=
EXTT16=
EXTT17=
PLAYORDER=
